<?xml version="1.0" encoding="UTF-8" standalone="no"?>
<!-- Created with Inkscape (http://www.inkscape.org/) -->

<svg
   xmlns:dc="http://purl.org/dc/elements/1.1/"
   xmlns:cc="http://creativecommons.org/ns#"
   xmlns:rdf="http://www.w3.org/1999/02/22-rdf-syntax-ns#"
   xmlns:svg="http://www.w3.org/2000/svg"
   xmlns="http://www.w3.org/2000/svg"
   xmlns:xlink="http://www.w3.org/1999/xlink"
   xmlns:sodipodi="http://sodipodi.sourceforge.net/DTD/sodipodi-0.dtd"
   xmlns:inkscape="http://www.inkscape.org/namespaces/inkscape"
   width="256"
   height="256"
   viewBox="0 0 67.733332 67.733335"
   version="1.1"
   id="svg4576"
   inkscape:version="0.92.0 r15299"
   sodipodi:docname="icon.svg"
   enable-background="new"
   inkscape:export-filename="favicon.png"
   inkscape:export-xdpi="96.000008"
   inkscape:export-ydpi="96.000008">
  <defs
     id="defs4570">
    <linearGradient
       inkscape:collect="always"
       id="linearGradient5777">
      <stop
         style="stop-color:#dc493c;stop-opacity:1;"
         offset="0"
         id="stop5773" />
      <stop
         style="stop-color:#e8887f;stop-opacity:1"
         offset="1"
         id="stop5775" />
    </linearGradient>
    <clipPath
       clipPathUnits="userSpaceOnUse"
       id="clipPath5477">
      <path
         sodipodi:nodetypes="cccccccccccccccccccccscc"
         inkscape:connector-curvature="0"
         id="path5479"
         d="m 33.86713,243.43265 c -10.880422,-1.1e-4 -19.700791,8.82024 -19.700666,19.70068 -1.25e-4,10.88042 8.820244,19.70077 19.700666,19.70066 6.169379,-0.0143 11.975716,-2.91813 15.688204,-7.84549 l 0.01791,0.0107 0.102743,-0.17755 c 0.918898,-1.23276 1.69033,-2.56885 2.29852,-3.98101 l -12.387966,-7.1527 c 0.01826,-0.18413 0.02739,-0.36903 0.02774,-0.55405 -1.9e-5,-3.17384 -2.572912,-5.74673 -5.746748,-5.74677 -3.173838,4e-5 -5.746734,2.57293 -5.746768,5.74677 3.4e-5,3.17384 2.57293,5.74673 5.746768,5.74677 1.179669,-0.002 2.32995,-0.36815 3.29469,-1.04706 l 7.43758,4.29458 c -2.657252,3.18291 -6.585981,5.02791 -10.73227,5.0401 -7.750976,-4e-5 -14.034355,-6.28343 -14.034391,-14.03439 3.6e-5,-7.75096 6.283415,-14.03435 14.034391,-14.03437 1.644346,0.009 3.274248,0.30783 4.815319,0.88147 0.432941,0.23108 0.919115,0.35231 1.413341,0.35241 1.619414,1.3e-4 2.932237,-1.27253 2.932112,-2.8424 -0.0013,-1.0165 -0.711451,-1.96286 -1.620721,-2.46915 0,0 -0.459666,-0.22667 -0.620453,-0.28907 -2.205641,-0.85587 -4.553725,-1.2854 -6.919582,-1.29957 z"
         style="opacity:1;fill:none;fill-opacity:1;stroke:#be3529;stroke-width:0.66145831;stroke-linecap:round;stroke-miterlimit:4;stroke-dasharray:none;stroke-opacity:1" />
    </clipPath>
    <linearGradient
       inkscape:collect="always"
       xlink:href="#linearGradient5777"
       id="linearGradient5779"
       x1="52.65686"
       y1="291.88074"
       x2="9.1281252"
       y2="234.42603"
       gradientUnits="userSpaceOnUse" />
    <linearGradient
       inkscape:collect="always"
       xlink:href="#linearGradient5777"
       id="linearGradient5874"
       x1="58.605209"
       y1="304.01141"
       x2="7.1437502"
       y2="224.76874"
       gradientUnits="userSpaceOnUse" />
    <filter
       inkscape:collect="always"
       style="color-interpolation-filters:sRGB"
       id="filter4520"
       x="-0.0024505704"
       width="1.0049011"
       y="-0.0023514745"
       height="1.0047029">
      <feGaussianBlur
         inkscape:collect="always"
         stdDeviation="0.038604687"
         id="feGaussianBlur4522" />
    </filter>
    <filter
       inkscape:collect="always"
       style="color-interpolation-filters:sRGB"
       id="filter4528"
       x="-0.0024479733"
       width="1.0048959"
       y="-0.0023538708"
       height="1.0047077">
      <feGaussianBlur
         inkscape:collect="always"
         stdDeviation="0.064072276"
         id="feGaussianBlur4530" />
    </filter>
  </defs>
  <sodipodi:namedview
     id="base"
     pagecolor="#ffffff"
     bordercolor="#666666"
     borderopacity="1.0"
     inkscape:pageopacity="0.0"
     inkscape:pageshadow="2"
     inkscape:zoom="2"
     inkscape:cx="44.531899"
     inkscape:cy="180.4412"
     inkscape:document-units="mm"
     inkscape:current-layer="layer1"
     showgrid="false"
     units="px"
     inkscape:showpageshadow="false"
     inkscape:window-width="1920"
     inkscape:window-height="1017"
     inkscape:window-x="-8"
     inkscape:window-y="-8"
     inkscape:window-maximized="1"
     inkscape:snap-page="true" />
  <metadata
     id="metadata4573">
    <rdf:RDF>
      <cc:Work
         rdf:about="">
        <dc:format>image/svg+xml</dc:format>
        <dc:type
           rdf:resource="http://purl.org/dc/dcmitype/StillImage" />
        <dc:title />
      </cc:Work>
    </rdf:RDF>
  </metadata>
  <g
     inkscape:label="shadowed"
     inkscape:groupmode="layer"
     id="layer1"
     transform="translate(0,-229.26665)"
     style="display:inline">
    <g
       id="g5745">
      <path
         inkscape:connector-curvature="0"
         style="opacity:1;fill:none;fill-opacity:1;stroke:#5b1a14;stroke-width:0.66145831;stroke-linecap:round;stroke-miterlimit:4;stroke-dasharray:none;stroke-opacity:1;filter:url(#filter4528)"
         d="m 27.626438,230.93706 -1.796274,7.39227 a 26.550438,26.550438 0 0 0 -9.959928,5.78561 l -7.2442762,-2.1237 -6.1676142,10.68233 5.4923951,5.24175 a 26.550438,26.550438 0 0 0 -0.6345185,5.68571 26.550438,26.550438 0 0 0 0.6835439,5.83648 l -5.4683514,5.21769 6.1676178,10.68233 7.3006845,-2.14037 a 26.550438,26.550438 0 0 0 9.996944,5.75973 l 1.775923,7.30808 h 12.334305 l 1.796274,-7.39133 a 26.550438,26.550438 0 0 0 9.959946,-5.78561 l 7.244271,2.12277 6.167608,-10.68233 -5.492404,-5.24081 a 26.550438,26.550438 0 0 0 0.634521,-5.68663 26.550438,26.550438 0 0 0 -0.683546,-5.83557 l 5.468366,-5.2186 -6.167627,-10.68235 -7.300689,2.14037 a 26.550438,26.550438 0 0 0 -9.996012,-5.7588 l -1.775923,-7.30902 z"
         id="path5311" />
      <path
         id="circle4730"
         d="m 27.626438,230.46936 -1.796274,7.39227 a 26.550438,26.550438 0 0 0 -9.959928,5.78561 l -7.2442762,-2.1237 -6.1676142,10.68233 5.4923951,5.24175 a 26.550438,26.550438 0 0 0 -0.6345185,5.68571 26.550438,26.550438 0 0 0 0.6835439,5.83648 l -5.4683514,5.21769 6.1676178,10.68233 7.3006845,-2.14037 a 26.550438,26.550438 0 0 0 9.996944,5.75973 l 1.775923,7.30808 h 12.334305 l 1.796274,-7.39133 a 26.550438,26.550438 0 0 0 9.959946,-5.78561 l 7.244271,2.12277 6.167608,-10.68233 -5.492404,-5.24081 a 26.550438,26.550438 0 0 0 0.634521,-5.68663 26.550438,26.550438 0 0 0 -0.683546,-5.83557 l 5.468366,-5.2186 -6.167627,-10.68235 -7.300689,2.14037 a 26.550438,26.550438 0 0 0 -9.996012,-5.7588 l -1.775923,-7.30902 z"
         style="opacity:1;fill:url(#linearGradient5874);fill-opacity:1;stroke:#be3529;stroke-width:0.66145831;stroke-linecap:round;stroke-miterlimit:4;stroke-dasharray:none;stroke-opacity:1"
         inkscape:connector-curvature="0" />
      <path
         sodipodi:nodetypes="cccccccccccccccccccccscc"
         inkscape:connector-curvature="0"
         id="circle4744"
         d="m 33.867129,243.43265 c -10.880421,-1.1e-4 -19.70079,8.82024 -19.700665,19.70068 -1.25e-4,10.88042 8.820244,19.70077 19.700665,19.70066 6.169381,-0.0143 11.975716,-2.91813 15.688205,-7.84549 l 0.0179,0.0107 0.102741,-0.17755 c 0.9189,-1.23276 1.69033,-2.56885 2.29852,-3.98101 l -12.387966,-7.1527 c 0.01826,-0.18413 0.02739,-0.36903 0.02774,-0.55405 -1.8e-5,-3.17384 -2.572913,-5.74673 -5.746749,-5.74677 -3.173837,4e-5 -5.746732,2.57293 -5.746768,5.74677 3.6e-5,3.17384 2.572931,5.74673 5.746768,5.74677 1.17967,-0.002 2.329951,-0.36815 3.29469,-1.04706 l 7.43758,4.29458 c -2.657252,3.18291 -6.58598,5.02791 -10.73227,5.0401 -7.750975,-4e-5 -14.034354,-6.28343 -14.03439,-14.03439 3.6e-5,-7.75096 6.283415,-14.03435 14.03439,-14.03437 1.644347,0.009 3.27425,0.30783 4.815319,0.88147 0.432942,0.23108 0.919115,0.35231 1.413343,0.35241 1.619414,1.3e-4 2.932235,-1.27253 2.93211,-2.8424 -0.0014,-1.0165 -0.71145,-1.96286 -1.62072,-2.46915 0,0 -0.459665,-0.22667 -0.620452,-0.28907 -2.205643,-0.85587 -4.553726,-1.2854 -6.919583,-1.29957 z"
         style="opacity:1;fill:#ffffff;fill-opacity:1;stroke:none;stroke-width:0.66145831;stroke-linecap:round;stroke-miterlimit:4;stroke-dasharray:none;stroke-opacity:1" />
      <path
         style="opacity:1;fill:none;fill-opacity:1;stroke:#7f231c;stroke-width:0.66145831;stroke-linecap:round;stroke-miterlimit:4;stroke-dasharray:none;stroke-opacity:1;filter:url(#filter4520)"
         d="m 33.94898,243.79513 c -10.88042,-1.4e-4 -19.705814,8.97349 -19.700665,19.70068 0.0049,10.72717 8.820244,19.70077 19.700665,19.70066 6.169381,-0.0143 11.976514,-2.94246 15.688205,-7.84549 l 0.0179,0.0107 0.102741,-0.17755 c 0.9187,-1.22666 1.690687,-2.57973 2.29852,-3.98101 l -12.387966,-7.1527 c 0.01795,-0.17465 0.02771,-0.37872 0.02774,-0.55405 -0.0055,-3.00718 -2.572913,-5.74673 -5.746749,-5.74677 -3.173837,4e-5 -5.752196,2.73959 -5.746768,5.74677 0.0055,3.00719 2.572931,5.74674 5.746768,5.74677 1.179664,-0.002 2.330958,-0.39886 3.29469,-1.04706 l 7.43758,4.29458 c -2.654987,3.11383 -6.586003,5.02861 -10.73227,5.0401 -7.750975,-3e-5 -14.026256,-6.5304 -14.03439,-14.03439 -0.0081,-7.50398 6.283415,-14.03434 14.03439,-14.03437 1.644325,0.01 3.27333,0.33588 4.815319,0.88147 0.43305,0.22778 0.918249,0.37874 1.413343,0.35241 1.622253,-0.0865 2.928924,-1.17153 2.93211,-2.8424 7.41e-4,-1.08181 -0.711334,-1.96639 -1.62072,-2.46915 0,0 -0.459602,-0.22859 -0.620452,-0.28907 -2.206511,-0.8294 -4.553766,-1.28416 -6.919583,-1.29957 z"
         id="path5473"
         inkscape:connector-curvature="0"
         sodipodi:nodetypes="cccccccccccccccccccccscc"
         clip-path="url(#clipPath5477)" />
      <path
         style="opacity:1;fill:none;fill-opacity:1;stroke:#be3529;stroke-width:0.66145831;stroke-linecap:round;stroke-miterlimit:4;stroke-dasharray:none;stroke-opacity:1"
         d="m 33.867129,243.43265 c -10.880421,-1.1e-4 -19.70079,8.82024 -19.700665,19.70068 -1.25e-4,10.88042 8.820244,19.70077 19.700665,19.70066 6.169381,-0.0143 11.975716,-2.91813 15.688205,-7.84549 l 0.0179,0.0107 0.102741,-0.17755 c 0.9189,-1.23276 1.69033,-2.56885 2.29852,-3.98101 l -12.387966,-7.1527 c 0.01826,-0.18413 0.02739,-0.36903 0.02774,-0.55405 -1.8e-5,-3.17384 -2.572913,-5.74673 -5.746749,-5.74677 -3.173837,4e-5 -5.746732,2.57293 -5.746768,5.74677 3.6e-5,3.17384 2.572931,5.74673 5.746768,5.74677 1.17967,-0.002 2.329951,-0.36815 3.29469,-1.04706 l 7.43758,4.29458 c -2.657252,3.18291 -6.58598,5.02791 -10.73227,5.0401 -7.750975,-4e-5 -14.034354,-6.28343 -14.03439,-14.03439 3.6e-5,-7.75096 6.283415,-14.03435 14.03439,-14.03437 1.644347,0.009 3.27425,0.30783 4.815319,0.88147 0.432942,0.23108 0.919115,0.35231 1.413343,0.35241 1.619414,1.3e-4 2.932235,-1.27253 2.93211,-2.8424 -0.0014,-1.0165 -0.71145,-1.96286 -1.62072,-2.46915 0,0 -0.459665,-0.22667 -0.620452,-0.28907 -2.205643,-0.85587 -4.553726,-1.2854 -6.919583,-1.29957 z"
         id="path5733"
         inkscape:connector-curvature="0"
         sodipodi:nodetypes="cccccccccccccccccccccscc" />
    </g>
  </g>
  <g
     transform="translate(0,-229.26665)"
     id="g5771"
     inkscape:groupmode="layer"
     inkscape:label="plain"
     style="display:none">
    <g
       id="g5769">
      <path
         inkscape:connector-curvature="0"
         style="opacity:1;fill:url(#linearGradient5779);fill-opacity:1;stroke:#be3529;stroke-width:0.66145831;stroke-linecap:round;stroke-miterlimit:4;stroke-dasharray:none;stroke-opacity:1"
         d="m 27.626438,230.46936 -1.796274,7.39227 a 26.550438,26.550438 0 0 0 -9.959928,5.78561 l -7.2442762,-2.1237 -6.1676142,10.68233 5.4923951,5.24175 a 26.550438,26.550438 0 0 0 -0.6345185,5.68571 26.550438,26.550438 0 0 0 0.6835439,5.83648 l -5.4683514,5.21769 6.1676178,10.68233 7.3006845,-2.14037 a 26.550438,26.550438 0 0 0 9.996944,5.75973 l 1.775923,7.30808 h 12.334305 l 1.796274,-7.39133 a 26.550438,26.550438 0 0 0 9.959946,-5.78561 l 7.244271,2.12277 6.167608,-10.68233 -5.492404,-5.24081 a 26.550438,26.550438 0 0 0 0.634521,-5.68663 26.550438,26.550438 0 0 0 -0.683546,-5.83557 l 5.468366,-5.2186 -6.167627,-10.68235 -7.300689,2.14037 a 26.550438,26.550438 0 0 0 -9.996012,-5.7588 l -1.775923,-7.30902 z"
         id="path5761" />
      <path
         style="opacity:1;fill:#ffffff;fill-opacity:1;stroke:none;stroke-width:0.66145831;stroke-linecap:round;stroke-miterlimit:4;stroke-dasharray:none;stroke-opacity:1"
         d="m 33.867129,243.43265 c -10.880421,-1.1e-4 -19.70079,8.82024 -19.700665,19.70068 -1.25e-4,10.88042 8.820244,19.70077 19.700665,19.70066 6.169381,-0.0143 11.975716,-2.91813 15.688205,-7.84549 l 0.0179,0.0107 0.102741,-0.17755 c 0.9189,-1.23276 1.69033,-2.56885 2.29852,-3.98101 l -12.387966,-7.1527 c 0.01826,-0.18413 0.02739,-0.36903 0.02774,-0.55405 -1.8e-5,-3.17384 -2.572913,-5.74673 -5.746749,-5.74677 -3.173837,4e-5 -5.746732,2.57293 -5.746768,5.74677 3.6e-5,3.17384 2.572931,5.74673 5.746768,5.74677 1.17967,-0.002 2.329951,-0.36815 3.29469,-1.04706 l 7.43758,4.29458 c -2.657252,3.18291 -6.58598,5.02791 -10.73227,5.0401 -7.750975,-4e-5 -14.034354,-6.28343 -14.03439,-14.03439 3.6e-5,-7.75096 6.283415,-14.03435 14.03439,-14.03437 1.644347,0.009 3.27425,0.30783 4.815319,0.88147 0.432942,0.23108 0.919115,0.35231 1.413343,0.35241 1.619414,1.3e-4 2.932235,-1.27253 2.93211,-2.8424 -0.0014,-1.0165 -0.71145,-1.96286 -1.62072,-2.46915 0,0 -0.459665,-0.22667 -0.620452,-0.28907 -2.205643,-0.85587 -4.553726,-1.2854 -6.919583,-1.29957 z"
         id="path5763"
         inkscape:connector-curvature="0"
         sodipodi:nodetypes="cccccccccccccccccccccscc" />
      <path
         sodipodi:nodetypes="cccccccccccccccccccccscc"
         inkscape:connector-curvature="0"
         id="path5767"
         d="m 33.867129,243.43265 c -10.880421,-1.1e-4 -19.70079,8.82024 -19.700665,19.70068 -1.25e-4,10.88042 8.820244,19.70077 19.700665,19.70066 6.169381,-0.0143 11.975716,-2.91813 15.688205,-7.84549 l 0.0179,0.0107 0.102741,-0.17755 c 0.9189,-1.23276 1.69033,-2.56885 2.29852,-3.98101 l -12.387966,-7.1527 c 0.01826,-0.18413 0.02739,-0.36903 0.02774,-0.55405 -1.8e-5,-3.17384 -2.572913,-5.74673 -5.746749,-5.74677 -3.173837,4e-5 -5.746732,2.57293 -5.746768,5.74677 3.6e-5,3.17384 2.572931,5.74673 5.746768,5.74677 1.17967,-0.002 2.329951,-0.36815 3.29469,-1.04706 l 7.43758,4.29458 c -2.657252,3.18291 -6.58598,5.02791 -10.73227,5.0401 -7.750975,-4e-5 -14.034354,-6.28343 -14.03439,-14.03439 3.6e-5,-7.75096 6.283415,-14.03435 14.03439,-14.03437 1.644347,0.009 3.27425,0.30783 4.815319,0.88147 0.432942,0.23108 0.919115,0.35231 1.413343,0.35241 1.619414,1.3e-4 2.932235,-1.27253 2.93211,-2.8424 -0.0014,-1.0165 -0.71145,-1.96286 -1.62072,-2.46915 0,0 -0.459665,-0.22667 -0.620452,-0.28907 -2.205643,-0.85587 -4.553726,-1.2854 -6.919583,-1.29957 z"
         style="opacity:1;fill:none;fill-opacity:1;stroke:#be3529;stroke-width:0.66145831;stroke-linecap:round;stroke-miterlimit:4;stroke-dasharray:none;stroke-opacity:1" />
    </g>
  </g>
</svg>
