<svg xmlns="http://www.w3.org/2000/svg" fill="none" viewBox="0 0 962 160"><g clip-path="url(#a)"><path fill="#14CC80" d="M160 80v80l80-40V40l-80 40Z"/><path fill="#30F2A2" d="M160 0v80l80-40-80-40Z"/><path fill="#14CC80" d="M80 40v80l80-40V0L80 40Z"/><path fill="#30F2A2" d="M0 0v80l80 40V40L0 0Z"/></g><path fill="#140D30" d="M303 119.734h52.767c26.157 0 39.157-10.714 39.157-32.297 0-11.47-5.745-20.527-15.269-24.599v-.302c7.104-3.774 11.34-11.318 11.34-20.375 0-16.451-13.152-28.071-31.299-28.071H303v105.644Zm19.506-62.481V31.296h33.714c9.826 0 15.269 4.529 15.269 12.827 0 8.752-5.141 13.13-15.269 13.13h-33.714Zm0 45.125v-29.58h34.775c12.246 0 18.142 4.83 18.142 14.639 0 9.808-5.594 14.941-18.293 14.941h-34.624ZM406.988 86.234c0 22.334 13.609 35.765 35.832 35.765 11.944 0 21.468-3.774 28.12-10.563h.306v8.299h18.142V39.75h-18.75v43.465c0 12.827-9.525 21.885-22.978 21.885-13.454 0-21.926-7.996-21.926-21.885V39.75h-18.746v46.484ZM505.944 119.735h18.751V39.751h-18.751v79.984Zm-.755-93.571h19.959V7h-19.959v19.168-.004ZM541.534 119.735h18.747V9.566h-18.747v110.169ZM574.244 79.743c0 24.749 17.992 42.257 43.238 42.257 11.944 0 21.775-3.925 27.973-10.714h.302v8.449h17.69V9.566h-18.746v37.728h-.302c-6.505-6.19-16.331-9.808-27.671-9.808-24.341 0-42.484 18.262-42.484 42.257Zm70.457 5.133c0 11.317-11.341 20.677-25.403 20.677-15.873 0-26.307-10.11-26.307-25.806 0-15.696 10.434-25.806 26.156-25.806 13.911 0 25.554 9.053 25.554 20.376V84.88v-.004ZM680.026 119.735h18.75V96.797l15.27-12.978h.302l29.181 35.916h23.284l-39.615-47.54 37.95-32.45h-26.761l-39.309 34.261h-.302V9.566h-18.75v110.169ZM777.182 119.735h18.746V39.751h-18.746v79.984Zm-.755-93.571h19.958V7h-19.958v19.168-.004ZM869.008 55.749V39.75h-25.855V20.43h-18.747v19.32h-18.444v15.998h18.444v40.898c0 16.149 7.411 23.089 25.704 23.089h15.421V102.53H851.62c-6.651 0-8.467-1.51-8.467-6.793V55.749h25.855ZM874.265 80.045c0 25.353 17.086 41.955 44.149 41.955 16.477 0 29.331-6.039 38.553-17.961L944.42 92.873c-7.411 9.204-15.426 13.582-26.157 13.582-14.666 0-24.799-8.148-25.403-20.678h67.282v-5.586c0-24.296-17.086-42.71-42.79-42.71s-43.087 17.66-43.087 42.56v.004Zm18.897-7.846c1.213-11.318 11.039-19.168 24.497-19.168s22.977 7.85 24.039 19.168h-48.536Z"/><defs><clipPath id="a"><path fill="#fff" d="M0 0h240v160H0z"/></clipPath></defs></svg>