<svg width="180" height="37" viewBox="0 0 180 37" fill="none" xmlns="http://www.w3.org/2000/svg">
<path d="M46.5518 20.1113C46.5518 22.883 47.3934 25.1051 49.0767 26.7799C50.7601 28.4536 53.036 29.2916 55.9056 29.2916C58.7753 29.2916 60.7065 28.5848 62.1419 27.17C63.5762 25.7445 64.2939 24.0933 64.2939 22.2152V22.0462H60.1422V22.1986C60.1422 22.9563 59.8141 23.6064 59.1589 24.1501C58.5038 24.6926 57.4083 24.9644 55.8714 24.9644C54.1432 24.9644 52.8778 24.5401 52.0751 23.6915C51.2724 22.8428 50.8722 21.7117 50.8722 20.2981V19.382C50.8722 17.9684 51.2794 16.8373 52.0928 15.9886C52.9061 15.14 54.1656 14.7157 55.8714 14.7157C57.3623 14.7157 58.4471 14.9757 59.1247 15.4957C59.8141 16.0158 60.1588 16.6718 60.1588 17.4637V17.6339H64.3104L64.2939 17.4129C64.2266 15.5241 63.4912 13.8835 62.0912 12.4924C60.69 11.0894 58.6289 10.3885 55.9056 10.3885C53.036 10.3885 50.7601 11.2253 49.0767 12.9002C47.3934 14.5632 46.5518 16.7853 46.5518 19.5688V20.1113Z" fill="white"/>
<path d="M67.7844 28.7823H72.021V19.9696C72.021 18.0394 72.9477 17.0407 73.7149 16.4981C74.4834 15.9438 75.3593 15.6672 76.3414 15.6672C76.646 15.6672 76.9234 15.6838 77.1713 15.718C77.431 15.7523 77.6742 15.7913 77.8996 15.8362V10.6439C77.7863 10.599 77.5892 10.5481 77.307 10.4914C77.0355 10.4347 76.7699 10.4063 76.5102 10.4063C75.5045 10.4063 74.6062 10.6782 73.8153 11.2207C73.1035 11.71 72.5286 12.2856 72.0907 12.9499C72.0458 13.0184 71.9384 12.9901 71.9337 12.9073L71.563 10.898H67.7832V28.7823H67.7844Z" fill="white"/>
<path d="M79.6302 20.1113C79.6302 22.883 80.5061 25.1051 82.2567 26.7799C84.0073 28.4536 86.3128 29.2916 89.1706 29.2916C92.0285 29.2916 94.3162 28.4548 96.068 26.7799C97.8304 25.1063 98.711 22.883 98.711 20.1113V19.5688C98.711 16.7864 97.8292 14.5632 96.068 12.9002C94.3174 11.2265 92.0179 10.3885 89.1706 10.3885C86.3234 10.3885 84.0073 11.2253 82.2567 12.9002C80.5061 14.5632 79.6302 16.7853 79.6302 19.5688V20.1113ZM83.9519 19.382C83.9519 17.8325 84.404 16.7013 85.307 15.9886C86.2112 15.2759 87.4991 14.9201 89.1706 14.9201C90.8421 14.9201 92.1135 15.2759 93.0177 15.9886C93.9325 16.7013 94.3906 17.8325 94.3906 19.382V20.2981C94.3906 21.9043 93.9385 23.052 93.0354 23.7423C92.143 24.4207 90.8551 24.76 89.1718 24.76C87.4885 24.76 86.1947 24.4207 85.2917 23.7423C84.3993 23.052 83.9531 21.9043 83.9531 20.2981V19.382H83.9519Z" fill="white"/>
<path d="M100.636 10.8968L105.958 28.781H110.778L114.556 15.7948C114.596 15.6554 114.793 15.653 114.837 15.7925L118.912 28.7834H123.728L129.083 10.8992H123.843L121.2 20.8595C121.086 21.3122 120.979 21.759 120.877 22.1999C120.82 22.4776 120.723 22.9185 120.663 23.1975C120.65 23.2589 120.561 23.2601 120.547 23.1975C120.473 22.8783 120.39 22.545 120.301 22.1987C120.188 21.746 120.064 21.2992 119.928 20.8584L116.98 10.898H111.964C111.964 10.898 109.002 21.0581 108.457 23.0828C108.433 23.1703 108.309 23.1691 108.287 23.0816L105.22 10.898H100.637L100.636 10.8968Z" fill="white"/>
<path d="M130.467 20.1114C130.467 22.7578 131.185 24.9243 132.619 26.6098C134.065 28.2834 136.071 29.1215 138.636 29.1215C139.969 29.1215 141.121 28.878 142.092 28.3922C142.768 28.0506 143.634 27.2811 144.111 26.8332C144.305 27.6558 144.567 28.7822 144.567 28.7822H148.766V2.77081H144.346V13.0527C143.782 12.2608 143.036 11.6497 142.109 11.2207C141.184 10.7798 140.059 10.5588 138.738 10.5588C136.252 10.5588 134.252 11.4015 132.739 13.087C131.224 14.7606 130.467 16.9213 130.467 19.5688V20.1114ZM134.789 20.2804L134.772 19.3986C134.772 18.1091 135.168 17.0678 135.958 16.2771C136.749 15.4745 137.975 15.0727 139.636 15.0727C140.799 15.0727 141.788 15.3445 142.601 15.887C142.609 15.8929 142.618 15.8977 142.626 15.9036C143.713 16.6376 144.346 17.8822 144.346 19.1953V20.4246C144.346 21.7744 143.677 23.0485 142.542 23.7778C142.534 23.7837 142.524 23.7884 142.516 23.7944C141.646 24.3369 140.641 24.6087 139.5 24.6087C137.827 24.6087 136.625 24.2069 135.89 23.4043C135.156 22.6018 134.789 21.5605 134.789 20.2828V20.2804Z" fill="white"/>
<path d="M153.785 28.7824H158.004V10.8981H153.785V28.7824ZM152.888 6.01188C152.888 6.78133 153.147 7.41486 153.667 7.91247C154.198 8.39944 154.943 8.64174 155.903 8.64174C156.864 8.64174 157.586 8.39235 158.106 7.89474C158.637 7.39714 158.902 6.76951 158.902 6.01188C158.902 5.25424 158.643 4.64316 158.122 4.14556C157.603 3.64795 156.858 3.39856 155.886 3.39856C154.913 3.39856 154.198 3.64795 153.667 4.14556C153.147 4.64316 152.888 5.26488 152.888 6.01188Z" fill="white"/>
<path d="M163.122 28.7823H167.342V21.5274C167.342 17.4201 168.792 14.8186 171.951 14.8186C175.109 14.8186 175.781 16.6565 175.781 19.2403V28.7823H180V18.1777C180 15.1353 179.379 13.1047 178.136 12.0859C176.893 11.0564 175.307 10.5422 173.374 10.5422C172.098 10.5422 170.918 10.7798 169.833 11.255C168.857 11.6769 168.062 12.2762 167.451 13.0539C167.4 12.7785 167.121 10.8992 167.121 10.8992H163.122V28.7834V28.7823Z" fill="white"/>
<path d="M26.3793 0H10.7379C9.0578 0 7.52231 0.287415 6.17175 0.825712C4.92783 1.3215 3.84078 2.03011 2.94207 2.923C2.00965 3.84937 1.27689 4.97716 0.775862 6.27144C0.269651 7.57911 0 9.05675 0 10.6683V26.2083C0 27.9214 0.291075 29.473 0.83788 30.8333C1.33828 32.0782 2.05284 33.163 2.95448 34.0647C3.85321 34.9634 4.94061 35.672 6.18987 36.1676C7.56348 36.7125 9.13276 37 10.8621 37H26.3793C28.1035 37 29.6653 36.7108 31.0345 36.1676C32.2875 35.6704 33.3793 34.9605 34.2869 34.0647C35.1956 33.1677 35.9111 32.0816 36.4103 30.8333C36.9544 29.4727 37.2414 27.9193 37.2414 26.2083V10.7917C37.2414 9.12246 36.965 7.60651 36.445 6.27144C35.9429 4.98255 35.2137 3.86223 34.2869 2.93533C33.3841 2.03248 32.2909 1.32162 31.0345 0.825712C29.6649 0.285152 28.1015 0 26.3793 0Z" fill="white"/>
<path d="M23.0398 22.5739C23.0274 22.4365 22.9157 21.9117 22.5557 21.8992C22.1957 21.8992 21.4384 21.8992 21.4384 21.8992C21.4384 21.8992 20.9791 21.8992 20.9791 22.349C20.9915 23.2237 21.4881 23.9734 22.0964 24.4732C22.6053 24.898 23.226 25.123 23.9336 25.123C24.5543 25.1105 24.6288 24.6606 24.3309 24.5232C23.8343 24.2858 23.1888 23.761 23.0522 22.5739H23.0398Z" fill="#263238"/>
<path d="M26.3793 10.5284C24.7788 10.5284 23.1783 10.7279 21.7241 11.0884C20.336 11.4326 19.0811 11.9235 18.0869 12.5276C16.9945 13.1899 16.1503 13.9896 15.5669 14.9142C15.0951 15.6639 14.7848 16.4761 14.6731 17.3508C14.6358 17.6382 14.611 18.5379 15.5545 18.7753C16.1379 18.9252 17.0565 18.9877 17.6648 19.0627C18.6579 19.1751 18.931 18.063 19.0179 17.8756C19.8 15.7014 20.9669 14.2395 22.6303 13.2773C23.645 12.6916 24.8704 12.2954 26.3793 12.0725C27.381 11.9245 28.5077 11.8529 29.7807 11.8529C30.2027 11.8529 31.1834 11.9029 31.1834 11.4155C31.1834 11.0416 30.4118 10.8275 29.4827 10.7049C28.239 10.5409 26.7133 10.5409 26.3793 10.5409V10.5284Z" fill="#263238"/>
<path d="M22.0219 27.0348C20.8923 26.7724 18.993 25.5354 18.5585 22.3991C18.4716 21.8118 18.1488 21.5244 17.6523 21.4244C16.9944 21.287 15.8399 21.2245 15.4675 21.187C14.9337 21.1371 14.5364 21.4494 14.5985 22.3866C14.7102 23.811 15.2813 24.9231 16.2371 26.0227C17.3668 27.3222 18.8564 28.0719 20.4454 28.0344C22.1957 27.997 22.3199 27.6846 22.3323 27.4472C22.3323 27.2098 22.2206 27.0723 22.0219 27.0223V27.0348Z" fill="#263238"/>
<path d="M17.2675 29.6588C15.5171 29.6588 11.8427 26.8349 11.8427 22.4116C11.8427 21.6369 11.3709 20.8497 10.4027 20.5623C9.62059 20.3249 8.50335 19.975 7.79576 19.9375C6.09507 19.825 6.18197 21.2495 6.23162 21.9992C6.393 25.1355 7.77093 27.7845 10.0427 29.284C10.9861 29.9087 12.1033 30.3336 13.4192 30.5835C13.7296 30.6459 14.8344 30.8709 15.9516 30.8334C17.6771 30.7584 17.8509 30.2586 17.8509 30.0587C17.8509 29.7963 17.6647 29.6713 17.2675 29.6713V29.6588Z" fill="#263238"/>
<path d="M31.6178 7.46711C30.9145 7.26272 30.2019 7.08285 29.4827 6.92719C28.4592 6.70566 27.4223 6.53319 26.3793 6.4089C23.8094 6.10267 21.2029 6.08902 18.6703 6.35503C16.4383 6.59377 13.9471 7.15341 11.7776 8.30429C9.51886 9.50257 7.60885 11.3418 6.70336 14.1271C6.51715 14.6894 6.18198 16.7511 8.14336 17.2509C8.77646 17.4133 9.42198 17.7007 10.0923 17.8257C12.0041 18.1756 12.4137 16.3513 12.5254 15.9889C12.6372 15.639 12.7613 15.3016 12.9103 14.9518C13.5185 13.6398 14.4247 12.5277 15.4551 11.6655C17.5903 9.8662 20.2468 9.01652 22.8289 8.60418C24.3309 8.36677 25.833 8.26681 27.3351 8.30429C28.1838 8.32292 28.8916 8.35021 29.4827 8.37907C30.1289 8.41062 30.6357 8.44403 31.0345 8.47003C32.2291 8.54791 32.4553 8.55923 32.5613 8.25431C32.7351 7.7545 31.9158 7.54208 31.6178 7.46711Z" fill="#263238"/>
<path d="M27.7324 14.627C22.6924 14.627 21.3765 17.176 21.0041 18.8753C20.8303 19.7 21.3268 19.7625 21.7862 19.85C22.4317 19.9624 22.9531 19.8625 23.1889 19.2377C23.8965 17.3009 24.8648 15.4017 27.931 15.4017C28.2413 15.4017 28.5144 15.2017 28.5144 15.0143C28.5144 14.8269 28.3158 14.627 27.7448 14.627H27.7324Z" fill="#263238"/>
</svg>
