<svg width="116" height="24" viewBox="0 0 116 24" fill="none" xmlns="http://www.w3.org/2000/svg">
<path d="M30 13.0117C30 14.7955 30.5426 16.2255 31.6267 17.3039C32.7119 18.3812 34.1781 18.9204 36.0275 18.9204C37.8769 18.9204 39.1215 18.4649 40.0462 17.5549C40.9709 16.6381 41.4332 15.5743 41.4332 14.3659V14.2563H38.7575V14.3546C38.7575 14.8418 38.5461 15.2612 38.1244 15.6105C37.7016 15.9598 36.9963 16.135 36.006 16.135C34.8925 16.135 34.0763 15.8615 33.5597 15.3155C33.0431 14.7695 32.7843 14.0415 32.7843 13.1315V12.5414C32.7843 11.6314 33.0465 10.9034 33.571 10.3574C34.0956 9.81139 34.9072 9.53783 36.006 9.53783C36.9669 9.53783 37.6655 9.70513 38.1029 10.0397C38.5472 10.3744 38.7688 10.7971 38.7688 11.307V11.4166H41.4445L41.4332 11.2742C41.3891 10.0578 40.9166 9.00313 40.0134 8.1067C39.1102 7.20348 37.7819 6.75244 36.0275 6.75244C34.1781 6.75244 32.7108 7.29166 31.6267 8.36896C30.5415 9.43948 30 10.8695 30 12.6612V13.0105V13.0117Z" fill="#263238"/>
<path d="M43.6839 18.5926H46.4139V12.9201C46.4139 11.6777 47.0107 11.0356 47.5059 10.6852C48.001 10.328 48.5651 10.1505 49.1981 10.1505C49.3948 10.1505 49.5734 10.1618 49.7328 10.1833C49.9001 10.2048 50.0573 10.2308 50.2019 10.2602V6.9186C50.1296 6.88921 50.0019 6.85643 49.8199 6.82025C49.6446 6.78408 49.474 6.76599 49.3066 6.76599C48.6589 6.76599 48.0801 6.94121 47.5703 7.29051C47.1113 7.60477 46.7406 7.97669 46.4591 8.40286C46.4297 8.44695 46.3607 8.42886 46.3573 8.37573L46.1188 7.08251H43.6827V18.5926H43.6839Z" fill="#263238"/>
<path d="M51.3177 13.0117C51.3177 14.7955 51.8818 16.2255 53.01 17.3039C54.1382 18.3812 55.6236 18.9205 57.4662 18.9205C59.3088 18.9205 60.7829 18.3812 61.911 17.3039C63.0471 16.2266 63.6146 14.7955 63.6146 13.0117V12.6624C63.6146 10.8718 63.0471 9.44064 61.911 8.37012C60.7829 7.29282 59.3009 6.7536 57.4662 6.7536C55.6315 6.7536 54.1393 7.29282 53.01 8.37012C51.8818 9.44064 51.3177 10.8706 51.3177 12.6624V13.0117ZM54.102 12.5426C54.102 11.5455 54.3937 10.8175 54.9758 10.3586C55.558 9.8996 56.3877 9.67012 57.4662 9.67012C58.5446 9.67012 59.363 9.8996 59.9452 10.3586C60.5353 10.8175 60.8303 11.5455 60.8303 12.5426V13.1326C60.8303 14.167 60.5387 14.9052 59.9565 15.3494C59.3811 15.7858 58.5514 16.0051 57.4662 16.0051C56.381 16.0051 55.5478 15.7869 54.9657 15.3494C54.3903 14.9052 54.1031 14.1659 54.1031 13.1326V12.5426H54.102Z" fill="#263238"/>
<path d="M64.8547 7.08029L68.2833 18.5904H71.3886L73.8235 10.2319C73.8495 10.1426 73.9761 10.1404 74.0044 10.2297L76.6304 18.5904H79.7346L83.1858 7.08029H79.8092L78.1056 13.491C78.0333 13.7826 77.9632 14.0698 77.8976 14.3535C77.8603 14.5321 77.7981 14.8158 77.7586 14.9956C77.7495 15.0352 77.693 15.0363 77.684 14.9956C77.6354 14.7898 77.5834 14.5762 77.5257 14.3524C77.4534 14.0607 77.3731 13.7736 77.2849 13.4899L75.3847 7.07916H72.1516C72.1516 7.07916 70.2435 13.6187 69.8908 14.9221C69.8761 14.9786 69.7958 14.9775 69.7811 14.9221L67.8051 7.08029H64.8524H64.8547Z" fill="#263238"/>
<path d="M84.08 13.0117C84.08 14.7152 84.5423 16.109 85.467 17.1943C86.3985 18.2716 87.6917 18.8108 89.3444 18.8108C90.2035 18.8108 90.9462 18.6548 91.5713 18.3417C92.0066 18.1212 92.565 17.6272 92.8725 17.339C92.9979 17.868 93.1664 18.5937 93.1664 18.5937H95.8726V1.85089H93.0239V8.46845C92.6599 7.95862 92.1795 7.56523 91.5826 7.28941C90.9858 7.00567 90.2612 6.86323 89.4099 6.86323C87.8081 6.86323 86.5194 7.40584 85.5439 8.48993C84.5683 9.56723 84.08 10.9577 84.08 12.6612V13.0105V13.0117ZM86.8653 13.1213L86.8552 12.5538C86.8552 11.7241 87.1095 11.0538 87.6193 10.5439C88.1292 10.0273 88.9193 9.76845 89.9899 9.76845C90.7393 9.76845 91.3769 9.94366 91.9003 10.293C91.9059 10.2964 91.9105 10.2998 91.9161 10.3031C92.617 10.7757 93.0251 11.576 93.0251 12.4216V13.2129C93.0251 14.0822 92.5944 14.9017 91.863 15.3709C91.8573 15.3743 91.8517 15.3777 91.846 15.3811C91.2853 15.7304 90.6376 15.9056 89.9028 15.9056C88.8244 15.9056 88.05 15.6467 87.5764 15.1301C87.1027 14.6135 86.8665 13.9431 86.8665 13.1202L86.8653 13.1213Z" fill="#263238"/>
<path d="M99.1057 18.5926H101.826V7.08141H99.1057V18.5915V18.5926ZM98.5281 3.93654C98.5281 4.43167 98.6954 4.83976 99.03 5.15967C99.3725 5.4728 99.8518 5.6288 100.471 5.6288C101.091 5.6288 101.557 5.46828 101.891 5.14836C102.234 4.82845 102.404 4.42376 102.404 3.93654C102.404 3.44932 102.237 3.05593 101.901 2.73489C101.567 2.41498 101.086 2.25446 100.46 2.25446C99.8337 2.25446 99.3725 2.41498 99.03 2.73489C98.6954 3.0548 98.5281 3.45611 98.5281 3.93654Z" fill="#263238"/>
<path d="M105.123 18.5926H107.843V13.9239C107.843 11.2809 108.778 9.60563 110.812 9.60563C112.847 9.60563 113.281 10.7892 113.281 12.4509V18.5926H116V11.767C116 9.80911 115.6 8.5012 114.798 7.84668C113.997 7.18424 112.975 6.85303 111.729 6.85303C110.907 6.85303 110.147 7.00564 109.447 7.31198C108.818 7.58329 108.306 7.9699 107.912 8.46955C107.879 8.29207 107.699 7.08251 107.699 7.08251H105.122V18.5926H105.123Z" fill="#263238"/>
<path d="M17 0H6.92C5.83725 0 4.84771 0.186432 3.97735 0.535597C3.17571 0.85719 2.47517 1.31683 1.896 1.896C1.29511 2.49689 0.822883 3.22843 0.5 4.06796C0.173775 4.91618 0 5.87465 0 6.92V17C0 18.1112 0.187582 19.1176 0.539967 20C0.862446 20.8075 1.32294 21.5111 1.904 22.096C2.48318 22.679 3.18395 23.1386 3.98903 23.46C4.87424 23.8135 5.88556 24 7 24H17C18.1112 24 19.1176 23.8124 20 23.46C20.8075 23.1376 21.5111 22.6771 22.096 22.096C22.6816 21.5142 23.1427 20.8097 23.4644 20C23.815 19.1174 24 18.1098 24 17V7C24 5.91727 23.8219 4.93396 23.4868 4.06796C23.1632 3.23192 22.6933 2.50523 22.096 1.904C21.5142 1.31837 20.8097 0.857267 20 0.535597C19.1174 0.184963 18.1098 0 17 0Z" fill="#263238"/>
<path d="M14.8479 14.712C14.8399 14.624 14.7679 14.288 14.5359 14.28C14.3039 14.28 13.8159 14.28 13.8159 14.28C13.8159 14.28 13.5199 14.28 13.5199 14.568C13.5279 15.128 13.8479 15.608 14.2399 15.928C14.5679 16.2 14.9679 16.344 15.4239 16.344C15.8239 16.336 15.8719 16.048 15.6799 15.96C15.3599 15.808 14.9439 15.472 14.8559 14.712H14.8479Z" fill="white"/>
<path d="M17 7.00006C15.9686 7.00006 14.9371 7.1278 14 7.35863C13.1054 7.57897 12.2967 7.89326 11.656 8.28006C10.952 8.70406 10.408 9.21606 10.032 9.80806C9.72799 10.2881 9.52799 10.8081 9.45599 11.3681C9.43199 11.5521 9.41599 12.1281 10.024 12.2801C10.4 12.3761 10.992 12.4161 11.384 12.4641C12.024 12.5361 12.2 11.8241 12.256 11.7041C12.76 10.3121 13.512 9.37606 14.584 8.76006C15.2379 8.38504 16.0276 8.13137 17 7.98866C17.6456 7.89391 18.3716 7.84806 19.192 7.84806C19.464 7.84806 20.096 7.88006 20.096 7.56806C20.096 7.32862 19.5987 7.19155 19 7.1131C18.1985 7.00806 17.2152 7.00806 17 7.00806V7.00006Z" fill="white"/>
<path d="M14.1919 17.5681C13.4639 17.4001 12.2399 16.6081 11.9599 14.6001C11.9039 14.2241 11.6959 14.0401 11.3759 13.9761C10.9519 13.8881 10.2079 13.8481 9.96793 13.8241C9.62393 13.7921 9.36793 13.9921 9.40793 14.5921C9.47993 15.5041 9.84793 16.2161 10.4639 16.9201C11.1919 17.7521 12.1519 18.2321 13.1759 18.2081C14.3039 18.1841 14.3839 17.9841 14.3919 17.8321C14.3919 17.6801 14.3199 17.5921 14.1919 17.5601V17.5681Z" fill="white"/>
<path d="M11.128 19.248C9.99995 19.248 7.63195 17.44 7.63195 14.608C7.63195 14.112 7.32795 13.608 6.70395 13.424C6.19995 13.272 5.47995 13.048 5.02395 13.024C3.92795 12.952 3.98395 13.864 4.01595 14.344C4.11995 16.352 5.00795 18.048 6.47195 19.008C7.07995 19.408 7.79995 19.68 8.64795 19.84C8.84795 19.88 9.55995 20.024 10.28 20C11.392 19.952 11.504 19.632 11.504 19.504C11.504 19.336 11.384 19.256 11.128 19.256V19.248Z" fill="white"/>
<path d="M20.376 5.04002C19.9227 4.90916 19.4635 4.794 19 4.69434C18.3404 4.55251 17.6721 4.44208 17 4.36251C15.3439 4.16645 13.6641 4.15771 12.032 4.32802C10.5936 4.48087 8.98815 4.83918 7.59006 5.57602C6.13439 6.34321 4.9035 7.52076 4.31996 9.30402C4.19996 9.66402 3.98396 10.984 5.24796 11.304C5.65596 11.408 6.07196 11.592 6.50396 11.672C7.73596 11.896 7.99996 10.728 8.07196 10.496C8.14396 10.272 8.22396 10.056 8.31996 9.83202C8.71196 8.99202 9.29596 8.28002 9.95996 7.72802C11.336 6.57602 13.048 6.03202 14.712 5.76802C15.68 5.61602 16.648 5.55202 17.616 5.57602C18.1629 5.58794 18.6191 5.60542 19 5.6239C19.4164 5.64409 19.743 5.66549 20 5.68213C20.7699 5.732 20.9156 5.73924 20.984 5.54402C21.096 5.22402 20.568 5.08802 20.376 5.04002Z" fill="white"/>
<path d="M17.872 9.62402C14.624 9.62402 13.776 11.256 13.536 12.344C13.424 12.872 13.744 12.912 14.04 12.968C14.456 13.04 14.792 12.976 14.944 12.576C15.4 11.336 16.024 10.12 18 10.12C18.2 10.12 18.376 9.99202 18.376 9.87202C18.376 9.75202 18.248 9.62402 17.88 9.62402H17.872Z" fill="white"/>
</svg>
