<?xml version="1.0" encoding="UTF-8"?>
<svg width="510px" height="510px" viewBox="45 38 420 420" version="1.1" xmlns="http://www.w3.org/2000/svg" xmlns:xlink="http://www.w3.org/1999/xlink">
    <!-- Generator: Sketch 54 (76480) - https://sketchapp.com -->
    <title>编组 7</title>
    <desc>Created with Sketch.</desc>
    <defs>
        <radialGradient cx="39.6065985%" cy="0%" fx="39.6065985%" fy="0%" r="103.740797%" gradientTransform="translate(0.396066,0.000000),scale(1.000000,0.963941),rotate(90.000000),translate(-0.396066,-0.000000)" id="radialGradient-1">
            <stop stop-color="#F47359" offset="0%"></stop>
            <stop stop-color="#BE4025" offset="100%"></stop>
        </radialGradient>
        <filter x="-8.5%" y="-8.2%" width="117.0%" height="116.4%" filterUnits="objectBoundingBox" id="filter-2">
            <feGaussianBlur stdDeviation="10" in="SourceGraphic"></feGaussianBlur>
        </filter>
    </defs>
    <g id="gogs-定稿" stroke="none" stroke-width="1" fill="none" fill-rule="evenodd">
        <g transform="translate(-72.000000, -40.000000)" id="编组">
            <g transform="translate(72.000000, 40.000000)">
                <g id="编组-7">
                    <path d="M100.221548,297.768459 C97.8984787,286.987308 96.6753133,275.797211 96.6753133,264.321429 C96.6753133,252.845646 97.8984787,241.655549 100.221548,230.874398 L79.7883896,209.850426 C77.8176215,207.822675 77.4332045,204.732768 78.8470383,202.283936 L113.052989,143.037492 C114.466822,140.58866 117.334968,139.376622 120.076437,140.069481 L148.537315,147.262482 C165.035407,132.289542 184.712208,120.756278 206.435371,113.795041 L214.42298,85.5984792 C215.193681,82.8778682 217.67741,81 220.505077,81 L288.916978,81 C291.744645,81 294.228375,82.8778682 294.999075,85.5984792 L302.986654,113.795031 C324.709847,120.756278 344.386648,132.289542 360.884727,147.262471 L389.345618,140.069481 C392.087087,139.376622 394.955233,140.58866 396.369067,143.037492 L430.575017,202.283936 C431.988851,204.732768 431.604434,207.822675 429.633666,209.850426 L409.200507,230.874398 C411.523577,241.655549 412.746742,252.845646 412.746742,264.321429 C412.746742,275.797211 411.523577,286.987308 409.200507,297.768459 L429.633666,318.792431 C431.604434,320.820182 431.988851,323.910089 430.575017,326.358921 L396.369067,385.605365 C394.955233,388.054197 392.087087,389.266235 389.345618,388.573376 L360.88474,381.380375 C344.386648,396.353315 324.709847,407.886579 302.986684,414.847817 L294.999075,443.044378 C294.228375,445.764989 291.744645,447.642857 288.916978,447.642857 L220.505077,447.642857 C217.67741,447.642857 215.193681,445.764989 214.42298,443.044378 L206.435401,414.847826 C184.712208,407.886579 165.035407,396.353315 148.537328,381.380387 L120.076437,388.573376 C117.334968,389.266235 114.466822,388.054197 113.052989,385.605365 L78.8470383,326.358921 C77.4332045,323.910089 77.8176215,320.820182 79.7883896,318.792431 L100.221548,297.768459 Z" id="路径" fill="url(#radialGradient-1)" opacity="0.44" filter="url(#filter-2)"></path>
                    <path d="M100.221548,288.768459 C97.8984787,277.987308 96.6753133,266.797211 96.6753133,255.321429 C96.6753133,243.845646 97.8984787,232.655549 100.221548,221.874398 L79.7883896,200.850426 C77.8176215,198.822675 77.4332045,195.732768 78.8470383,193.283936 L113.052989,134.037492 C114.466822,131.58866 117.334968,130.376622 120.076437,131.069481 L148.537315,138.262482 C165.035407,123.289542 184.712208,111.756278 206.435371,104.795041 L214.42298,76.5984792 C215.193681,73.8778682 217.67741,72 220.505077,72 L288.916978,72 C291.744645,72 294.228375,73.8778682 294.999075,76.5984792 L302.986654,104.795031 C324.709847,111.756278 344.386648,123.289542 360.884727,138.262471 L389.345618,131.069481 C392.087087,130.376622 394.955233,131.58866 396.369067,134.037492 L430.575017,193.283936 C431.988851,195.732768 431.604434,198.822675 429.633666,200.850426 L409.200507,221.874398 C411.523577,232.655549 412.746742,243.845646 412.746742,255.321429 C412.746742,266.797211 411.523577,277.987308 409.200507,288.768459 L429.633666,309.792431 C431.604434,311.820182 431.988851,314.910089 430.575017,317.358921 L396.369067,376.605365 C394.955233,379.054197 392.087087,380.266235 389.345618,379.573376 L360.88474,372.380375 C344.386648,387.353315 324.709847,398.886579 302.986684,405.847817 L294.999075,434.044378 C294.228375,436.764989 291.744645,438.642857 288.916978,438.642857 L220.505077,438.642857 C217.67741,438.642857 215.193681,436.764989 214.42298,434.044378 L206.435401,405.847826 C184.712208,398.886579 165.035407,387.353315 148.537328,372.380387 L120.076437,379.573376 C117.334968,380.266235 114.466822,379.054197 113.052989,376.605365 L78.8470383,317.358921 C77.4332045,314.910089 77.8176215,311.820182 79.7883896,309.792431 L100.221548,288.768459 Z" id="路径" fill="url(#radialGradient-1)"></path>
                    <g id="编组-6" transform="translate(148.043469, 141.535714)" fill="#FFFFFF" fill-rule="nonzero">
                        <path d="M135.013761,140.933599 C124.158481,149.620336 108.66051,151.266292 95.8940306,143.895562 C79.264821,134.294683 73.5672331,113.030995 83.1681117,96.4017857 C92.7689903,79.7725761 114.032678,74.0749881 130.661888,83.6758668 C143.428367,91.046597 149.751913,105.291212 147.656618,119.035528 L205.823042,152.617929 C211.870027,156.109157 213.941878,163.841408 210.450649,169.888393 C179.465995,223.555387 110.842275,241.943058 57.1752806,210.958404 C3.50828601,179.97375 -14.8793843,111.35003 16.1052695,57.6830357 C47.0899233,4.01604108 115.713643,-14.3716292 169.380638,16.6130246 C175.427623,20.1042532 177.499473,27.8365033 174.008245,33.8834886 C170.517016,39.9304739 162.784766,42.0023241 156.737781,38.5110955 C115.164757,14.5088989 62.005537,28.7528688 38.0033404,70.3258929 C14.0011438,111.898917 28.2451138,165.058136 69.8181378,189.060333 C107.672335,210.915464 155.1326,201.060849 181.440616,167.738157 L135.013761,140.933599 Z" id="路径复制-5"></path>
                    </g>
                </g>
            </g>
        </g>
    </g>
</svg>